# xmcd
#
# Track frame offsets: 
#        150
#        29703
#        56572
#        81259
#        90925
#        113647
#        136973
#        156115
#        169370
#        188788
#        217980
#        236737
#        257249
#        280972
#        307331
#
# Disc length: 4353 seconds
#
# Revision: 0
# Processed by: cddbd v1.5.2PL0 Copyright (c) Steve Scherf et al.
# Submitted via: ExactAudioCopy v1.0b3
#
DISCID=d810ff0f
DTITLE=Kashif - Send Me Your Love
DYEAR=1984
DGENRE=R&B
TTITLE0=Baby Don't Break Your Baby's Heart
TTITLE1=Ooh Love
TTITLE2=Are You The Woman
TTITLE3=Love Has No End
TTITLE4=Call Me Tonight (Instrumental)
TTITLE5=Send Me Your Love
TTITLE6=I've Been Missin' You
TTITLE7=Edgartown Groove
TTITLE8=That's How It Goes
TTITLE9=Baby Don't Break Your Baby's Heart (Instrumental Version)
TTITLE10=Baby Don't Break Your Baby's Heart (Single Version)
TTITLE11=Ooh Love (Single Version)
TTITLE12=Ooh Love (12" Edit)
TTITLE13=Ooh Love (Instrumental Version)
TTITLE14=Are You The Woman (Single Version)
EXTD=
EXTT0=
EXTT1=
EXTT2=
EXTT3=
EXTT4=
EXTT5=
EXTT6=
EXTT7=
EXTT8=
EXTT9=
EXTT10=
EXTT11=
EXTT12=
EXTT13=
EXTT14=
PLAYORDER=
